# AST/ASF file generated using VICON BodyLanguage
# -----------------------------------------------
:version 1.10
:name VICON
:units
  mass 1.0
  length 0.45
  angle deg
:documentation
   .ast/.asf automatically generated from VICON data using
   VICON BodyBuilder and BodyLanguage model FoxedUp or BRILLIANT.MOD
:root
   order TX TY TZ RX RY RZ
   axis XYZ
   position 0 0 0  
   orientation 0 0 0 
:bonedata
  begin
     id 1 
     name lhipjoint
     direction 0.535335 -0.74333 0.401095 
     length 2.04549 
     axis 0 0 0  XYZ
  end
  begin
     id 2 
     name lfemur
     direction 0.34202 -0.939693 0  
     length 6.95643  
     axis 0 0 20  XYZ
    dof rx ry rz
    limits (-160.0 20.0)
           (-70.0 70.0)
           (-60.0 70.0)
  end
  begin
     id 3 
     name ltibia
     direction 0.34192 -0.939729 0   
     length 5.55969   
     axis 0 0 20   XYZ
    dof rx
    limits (-10.0 170.0)
  end
  begin
     id 4 
     name lfoot
     direction 0.216943 -0.596046 0.773088   
     length 2.27918   
     axis -90 7.62852e-016 20   XYZ
    dof rx rz
    limits (-45.0 90.0)
           (-70.0 20.0)
  end
  begin
     id 5 
     name ltoes
     direction 1.53519e-011 -4.21748e-011 1   
     length 1.05562   
     axis -90 7.62852e-016 20   XYZ
    dof rx
    limits (-90.0 20.0)
  end
  begin
     id 6 
     name rhipjoint
     direction -0.576368 -0.719173 0.38806   
     length 2.1142  
     axis 0 0 0  XYZ 
  end
  begin
     id 7 
     name rfemur
     direction -0.34202 -0.939693 0   
     length 7.07928   
     axis 0 0 -20   XYZ
    dof rx ry rz
    limits (-160.0 20.0)
           (-70.0 70.0)
           (-70.0 60.0)
  end
  begin
     id 8 
     name rtibia
     direction -0.34202 -0.939693 0   
     length 5.79974   
     axis 0 0 -20   XYZ
    dof rx
    limits (-10.0 170.0)
 end
 begin
     id 9 
     name rfoot
     direction -0.189288 -0.520065 0.832888   
     length 2.42173  
     axis -90 -7.62852e-016 -20   XYZ
    dof rx rz
    limits (-45.0 90.0)
           (-20.0 70.0)
  end
  begin
     id 10 
     name rtoes
     direction -1.53574e-011 -4.21658e-011 1   
     length 1.14469   
     axis -90 -7.62852e-016 -20   XYZ
    dof rx
    limits (-90.0 20.0)
  end
  begin
     id 11 
     name lowerback
     direction -0.00135702 0.993803 0.111144   
     length 1.91308   
     axis 0 0 0   XYZ
    dof rx ry rz
    limits (-20.0 45.0)
           (-30.0 30.0)
           (-30.0 30.0)
  end
  begin
     id 12 
     name upperback
     direction -0.0056745 0.999813 0.0184631   
     length 1.9212   
     axis 0 0 0   XYZ
    dof rx ry rz
    limits (-20.0 45.0)
           (-30.0 30.0)
           (-30.0 30.0)
  end
  begin
     id 13 
     name thorax
     direction -0.00733434 0.999426 -0.0330788   
     length 1.94196   
     axis 0 0 0   XYZ
    dof rx ry rz
    limits (-20.0 45.0)
           (-30.0 30.0)
           (-30.0 30.0)
  end
  begin
     id 14 
     name lowerneck
     direction 0.0563074 0.996944 -0.0541571   
     length 2.34257   
     axis 0 0 0   XYZ
    dof rx ry rz
    limits (-20.0 45.0)
           (-30.0 30.0)
           (-30.0 30.0)
  end
  begin
     id 15 
     name upperneck
     direction -0.0544519 0.976166 -0.210085   
     length 2.32506   
     axis 0 0 0   XYZ
    dof rx ry rz
    limits (-20.0 45.0)
           (-30.0 30.0)
           (-30.0 30.0)
  end
  begin
     id 16
     name head
     direction -0.0226035 0.997615 -0.0652205  
     length 2.3648  
     axis 0 0 0   XYZ
    dof rx ry rz
    limits (-20.0 45.0)
           (-30.0 30.0)
           (-30.0 30.0)
  end
  begin
     id 17 
     name lclavicle
     direction 0.92109 0.381297 -0.0787716  
     length 4.0487  
     axis 0 0 0   XYZ
    dof ry rz
    limits (-20.0 10.0)
           (0.0 20.0)
  end
  begin
     id 18 
     name lhumerus
     direction 1 -4.48986e-011 3.56724e-027   
     length 4.94991   
     axis 180 -30 -90   XYZ
    dof rx ry rz
    limits (-60.0 90.0)
           (-90.0 90.0)
           (-90.0 90.0)
  end
  begin
     id 19
     name lradius
     direction 1 -4.48981e-011 8.62147e-027   
     length 2.7606   
     axis 180 -30 -90   XYZ
    dof rx
    limits (-10.0 170.0)
  end
  begin
     id 20
     name lwrist
     direction 1 -4.48989e-011 1.59799e-026   
     length 1.3803   
     axis -1.17785e-014 90 90   XYZ
    dof ry
    limits (-180.0 0.0)
 end
  begin
     id 21 
     name lhand
     direction 1 -4.48896e-011 3.19599e-026   
     length 0.843936   
     axis -2.03931e-014 90 90   XYZ
    dof rx rz
    limits (-90.0 90.0)
           (-45.0 45.0)
  end
  begin
     id 22 
     name lfingers
     direction 1 -4.48887e-011 6.39197e-026   
     length 0.680403   
     axis -4.07862e-014 90 90   XYZ
    dof rx
    limits (0.0 90.0)
  end
  begin
     id 23
     name lthumb
     direction 0.707107 -6.348e-011 0.707107   
     length 0.976926   
     axis -90 45 2.85299e-015   XYZ
    dof rx rz
    limits (-45.0 45.0)
           (-45.0 45.0)
  end
  begin
     id 24 
     name rclavicle
     direction -0.951104 0.307692 -0.026953   
     length 4.21801  
     axis 0 0 0   XYZ 
    dof ry rz
    limits (-10.0 20.0)
           (-20.0 0.0)
  end
  begin
     id 25 
     name rhumerus
     direction -1 -4.4896e-011 -1.8171e-018  
     length 4.32982   
     axis 180 30 90   XYZ
    dof rx ry rz
    limits (-90.0 60.0)
           (-90.0 90.0)
           (-90.0 90.0)
  end
  begin
     id 26 
     name rradius
     direction -1 -4.48959e-011 8.25165e-027   
     length 3.20057   
     axis 180 30 90   XYZ
    dof rx
    limits (-10.0 170.0)
  end
  begin
     id 27 
     name rwrist
     direction -1 -4.48997e-011 1.59799e-026   
     length 1.60029   
     axis -1.17785e-014 -90 -90   XYZ
    dof ry
    limits (-180.0 0.0)
  end
  begin
     id 28
     name rhand
     direction -1 -4.49023e-011 3.19599e-026   
     length 0.960433   
     axis -2.03931e-014 -90 -90   XYZ
    dof rx rz
    limits (-90.0 90.0)
           (-45.0 45.0)
  end
  begin
     id 29
     name rfingers
     direction -1 -4.48802e-011 6.39197e-026   
     length 0.774326   
     axis -4.07862e-014 -90 -90   XYZ
    dof rx
    limits (0.0 90.0)
  end
  begin
     id 30
     name rthumb
     direction -0.707107 -6.34876e-011 0.707107   
     length 1.11178   
     axis -90 -45 -2.85299e-015   XYZ
    dof rx rz
    limits (-45.0 45.0)
           (-45.0 45.0)
  end
:hierarchy
  begin
    root lhipjoint rhipjoint lowerback
    lhipjoint lfemur
    lfemur ltibia
    ltibia lfoot
    lfoot ltoes
    rhipjoint rfemur
    rfemur rtibia
    rtibia rfoot
    rfoot rtoes
    lowerback upperback
    upperback thorax
    thorax lowerneck lclavicle rclavicle
    lowerneck upperneck
    upperneck head
    lclavicle lhumerus
    lhumerus lradius
    lradius lwrist
    lwrist lhand lthumb
    lhand lfingers
    rclavicle rhumerus
    rhumerus rradius
    rradius rwrist
    rwrist rhand rthumb
    rhand rfingers
end

#!OML:ASF C:\KaitlinTest1\Natural Motions\Nikki\Session 2\Nikki.ASF
:FULLY-SPECIFIED
:DEGREES
394
root -11.6093 16.4228 4.14827 70.2632 90.9749 63.24
lowerback -13.6651 -2.80626 1.4009
upperback -5.78143 -3.61754 0.273799
thorax 1.49636 -1.70538 -1.02587
lowerneck -7.0489 -10.109 -10.1733
upperneck 6.62696 45.108 6.37139
head 169.556 57.593 -36.4914
rclavicle 7.39541e-014 1.88845e-014
rhumerus -32.0977 3.27873 -97.6986
rradius 23.6508
rwrist 7.71155
rhand -36.1317 6.47587
rfingers 7.12502
rthumb -9.23687 -23.3018
lclavicle 7.39541e-014 1.88845e-014
lhumerus -35.5294 0.346837 89.5865
lradius 46.6431
lwrist 12.44
lhand -32.3859 10.0204
lfingers 7.12502
lthumb -5.62136 39.9258
rfemur -4.34067 -19.1634 20.3455
rtibia 16.4392
rfoot -15.2552 8.00941
rtoes -1.03368e-014
lfemur -8.39115 15.8524 -16.5753
ltibia 21.0522
lfoot -11.2141 -17.9826
ltoes -4.29375e-014
395
root -11.6036 16.4228 4.14175 67.7277 90.9708 60.6607
lowerback -13.7938 -2.75795 1.36072
upperback -5.79781 -3.54527 0.209303
thorax 1.54822 -1.66767 -1.0659
lowerneck -6.83848 -10.0527 -10.2709
upperneck 6.63889 45.0368 6.44359
head 170.106 57.6075 -36.1158
rclavicle -1.60798e-014 6.36111e-015
rhumerus -32.1142 -0.267254 -96.1091
rradius 20.9858
rwrist 10.2157
rhand -35.5863 5.96831
rfingers 7.12502
rthumb -8.71056 -23.832
lclavicle -1.60798e-014 6.36111e-015
lhumerus -35.4193 1.92589 89.056
lradius 42.4711
lwrist 9.32248
lhand -31.3562 9.17908
lfingers 7.12502
lthumb -4.62705 39.1085
rfemur -4.37675 -19.2671 20.3112
rtibia 16.4303
rfoot -15.1883 8.06263
rtoes -2.14687e-014
lfemur -8.39526 15.732 -16.6232
ltibia 21.0274
lfoot -11.2283 -17.9345
ltoes -5.56597e-014
396
root -11.6004 16.4228 4.13592 65.7257 91.0545 58.5918
lowerback -13.9197 -2.63055 1.3855
upperback -5.77332 -3.38266 0.255909
thorax 1.64699 -1.58481 -1.01456
lowerneck -6.79271 -10.1602 -10.509
upperneck 6.5302 44.7421 6.27635
head 170.031 57.6653 -36.0746
rclavicle -2.38045e-014 -9.59136e-015
rhumerus -32.0851 -5.11429 -93.4635
rradius 18.3583
rwrist 14.7358
rhand -35.0884 5.02614
rfingers 7.12502
rthumb -8.2301 -24.7936
lclavicle -2.38045e-014 -9.59136e-015
lhumerus -35.1107 3.7661 88.5927
lradius 38.1336
lwrist 5.16758
lhand -30.3446 8.18151
lfingers 7.12502
lthumb -3.65025 38.13
rfemur -4.45643 -19.5535 20.363
rtibia 16.4626
rfoot -15.2553 8.28566
rtoes 4.77083e-015
lfemur -8.48763 15.8198 -16.5796
ltibia 21.0775
lfoot -11.2556 -18.1033
ltoes 4.77083e-015
397
root -11.5931 16.4206 4.12839 67.2475 91.1145 60.0707
lowerback -14.196 -2.56452 1.47439
upperback -5.67318 -3.3123 0.204206
thorax 1.893 -1.54886 -1.12349
lowerneck -6.83885 -10.2517 -10.4173
upperneck 6.48289 44.5833 6.24377
head 169.796 57.8614 -36.2407
rclavicle -8.31557e-015 -6.62512e-015
rhumerus -32.2327 -10.4455 -90.724
rradius 15.8156
rwrist 19.414
rhand -34.7521 4.01455
rfingers 7.12502
rthumb -7.90549 -25.8176
lclavicle -8.31557e-015 -6.62512e-015
lhumerus -34.8694 6.73147 87.051
lradius 34.0315
lwrist -2.40387
lhand -27.5943 8.44601
lfingers 7.12502
lthumb -0.994066 38.4234
rfemur -4.50966 -19.9106 20.3938
rtibia 16.4967
rfoot -15.3237 8.62668
rtoes 3.49861e-014
lfemur -8.56361 16.0919 -16.5221
ltibia 21.1952
lfoot -11.2872 -18.4057
ltoes 3.81667e-014
